<mxfile>
    <diagram id="Qq6Kj_jMQ_SWNCFra1PU" name="Main Structure">
        <mxGraphModel dx="1179" dy="665" grid="0" gridSize="10" guides="1" tooltips="1" connect="1" arrows="1" fold="1" page="1" pageScale="1" pageWidth="1169" pageHeight="827" background="#ffffff" math="0" shadow="0">
            <root>
                <mxCell id="0"/>
                <mxCell id="1" parent="0"/>
                <mxCell id="HEbygqBgOdT5ULLkIGSS-1" value="&lt;span&gt;&lt;font style=&quot;font-size: 19px&quot;&gt;Control Peripheral (Interrupt, I/O, etc.)&lt;/font&gt;&lt;/span&gt;" style="whiteSpace=wrap;html=1;fillColor=#F2CC8F;strokeColor=#E07A5F;fontColor=#393C56;rotation=90;fontStyle=1;strokeWidth=1;sketch=1;" parent="1" vertex="1">
                    <mxGeometry x="590.75" y="314.75" width="651" height="50" as="geometry"/>
                </mxCell>
                <mxCell id="96" style="edgeStyle=orthogonalEdgeStyle;orthogonalLoop=1;jettySize=auto;html=1;exitX=0;exitY=0.25;exitDx=0;exitDy=0;entryX=0.5;entryY=0;entryDx=0;entryDy=0;strokeColor=#E07A5F;fillColor=#F2CC8F;fontColor=#393C56;fontStyle=1;strokeWidth=1;sketch=1;curved=1;" parent="1" source="zpe9MYXDSiPziy__MkWN-1" target="37" edge="1">
                    <mxGeometry relative="1" as="geometry"/>
                </mxCell>
                <mxCell id="zpe9MYXDSiPziy__MkWN-1" value="TaskSampleGPS" style="swimlane;fontStyle=1;align=center;verticalAlign=top;childLayout=stackLayout;horizontal=1;startSize=26;horizontalStack=0;resizeParent=1;resizeParentMax=0;resizeLast=0;collapsible=1;marginBottom=0;fillColor=#F2CC8F;strokeColor=#E07A5F;fontColor=#393C56;strokeWidth=1;sketch=1;" parent="1" vertex="1">
                    <mxGeometry x="94" y="257" width="125" height="103" as="geometry"/>
                </mxCell>
                <mxCell id="zpe9MYXDSiPziy__MkWN-3" value="" style="line;strokeWidth=1;fillColor=none;align=left;verticalAlign=middle;spacingTop=-1;spacingLeft=3;spacingRight=3;rotatable=0;labelPosition=right;points=[];portConstraint=eastwest;strokeColor=#E07A5F;fontColor=#393C56;labelBackgroundColor=#F4F1DE;fontStyle=1;sketch=1;" parent="zpe9MYXDSiPziy__MkWN-1" vertex="1">
                    <mxGeometry y="26" width="125" height="8" as="geometry"/>
                </mxCell>
                <mxCell id="zpe9MYXDSiPziy__MkWN-4" value="Topic_UTC_Time&#10;Topic_WGS84&#10;Topic_GNSS&#10;Topic_Altitude" style="text;strokeColor=none;fillColor=none;align=left;verticalAlign=top;spacingLeft=4;spacingRight=4;overflow=hidden;rotatable=0;points=[[0,0.5],[1,0.5]];portConstraint=eastwest;fontColor=#393C56;fontStyle=1;strokeWidth=1;sketch=1;" parent="zpe9MYXDSiPziy__MkWN-1" vertex="1">
                    <mxGeometry y="34" width="125" height="69" as="geometry"/>
                </mxCell>
                <mxCell id="zpe9MYXDSiPziy__MkWN-5" value="UART" style="html=1;fillColor=#F2CC8F;strokeColor=#E07A5F;fontColor=#393C56;fontStyle=1;fontSize=17;strokeWidth=1;sketch=1;" parent="1" vertex="1">
                    <mxGeometry x="119" y="563" width="110" height="50" as="geometry"/>
                </mxCell>
                <mxCell id="zpe9MYXDSiPziy__MkWN-6" value="&lt;p style=&quot;margin: 0px ; margin-top: 4px ; text-align: center&quot;&gt;&lt;span&gt;Sensor Base&lt;/span&gt;&lt;/p&gt;&lt;hr size=&quot;1&quot;&gt;&lt;p style=&quot;margin: 0px 0px 0px 4px&quot;&gt;&lt;font style=&quot;font-size: 12px&quot;&gt;Private&lt;/font&gt;&lt;span style=&quot;font-size: 11px&quot;&gt;:&lt;/span&gt;&lt;/p&gt;&lt;p style=&quot;margin: 0px 0px 0px 4px&quot;&gt;&lt;br&gt;&lt;/p&gt;&lt;hr size=&quot;1&quot;&gt;&lt;p style=&quot;margin: 0px 0px 0px 4px&quot;&gt;&lt;font style=&quot;font-size: 12px&quot;&gt;Protected&lt;/font&gt;&lt;span style=&quot;font-size: 11px&quot;&gt;:&lt;/span&gt;&lt;/p&gt;&lt;p style=&quot;margin: 0px 0px 0px 4px ; font-size: 11px&quot;&gt;- begin()&lt;/p&gt;&lt;p style=&quot;margin: 0px 0px 0px 4px ; font-size: 11px&quot;&gt;- parse()&lt;/p&gt;&lt;p style=&quot;margin: 0px 0px 0px 4px ; font-size: 11px&quot;&gt;- sampleFrequency()&lt;/p&gt;&lt;p style=&quot;margin: 0px 0px 0px 4px ; font-size: 11px&quot;&gt;- publish()&lt;/p&gt;" style="verticalAlign=top;align=left;overflow=fill;fontSize=12;fontFamily=Helvetica;html=1;fillColor=#F2CC8F;strokeColor=#E07A5F;fontColor=#393C56;fontStyle=1;strokeWidth=1;sketch=1;" parent="1" vertex="1">
                    <mxGeometry x="297" y="408" width="125" height="148" as="geometry"/>
                </mxCell>
                <mxCell id="2" value="GPS Neo UBlox7" style="html=1;fillColor=#F2CC8F;strokeColor=#E07A5F;fontColor=#393C56;fontStyle=1;strokeWidth=1;sketch=1;" parent="1" vertex="1">
                    <mxGeometry x="100" y="693" width="110" height="50" as="geometry"/>
                </mxCell>
                <mxCell id="3" value="IMU - MPU9250" style="html=1;fillColor=#F2CC8F;strokeColor=#E07A5F;fontColor=#393C56;fontStyle=1;strokeWidth=1;sketch=1;" parent="1" vertex="1">
                    <mxGeometry x="344" y="693" width="110" height="50" as="geometry"/>
                </mxCell>
                <mxCell id="4" value="Thermocouples&lt;br&gt;MAX31855" style="html=1;fillColor=#F2CC8F;strokeColor=#E07A5F;fontColor=#393C56;fontStyle=1;strokeWidth=1;sketch=1;" parent="1" vertex="1">
                    <mxGeometry x="494" y="693" width="110" height="50" as="geometry"/>
                </mxCell>
                <mxCell id="5" value="Barometer ..." style="html=1;fillColor=#F2CC8F;strokeColor=#E07A5F;fontColor=#393C56;fontStyle=1;strokeWidth=1;sketch=1;" parent="1" vertex="1">
                    <mxGeometry x="634" y="693" width="110" height="50" as="geometry"/>
                </mxCell>
                <mxCell id="6" value="SPI&amp;nbsp;" style="html=1;fillColor=#F2CC8F;strokeColor=#E07A5F;fontColor=#393C56;fontStyle=1;fontSize=17;strokeWidth=1;sketch=1;" parent="1" vertex="1">
                    <mxGeometry x="452" y="561" width="110" height="50" as="geometry"/>
                </mxCell>
                <mxCell id="7" value="I2C" style="html=1;fillColor=#F2CC8F;strokeColor=#E07A5F;fontColor=#393C56;fontStyle=1;fontSize=17;strokeWidth=1;sketch=1;" parent="1" vertex="1">
                    <mxGeometry x="584.25" y="563" width="110" height="50" as="geometry"/>
                </mxCell>
                <mxCell id="95" style="edgeStyle=orthogonalEdgeStyle;orthogonalLoop=1;jettySize=auto;html=1;exitX=0;exitY=0.25;exitDx=0;exitDy=0;strokeColor=#E07A5F;fillColor=#F2CC8F;fontColor=#393C56;fontStyle=1;strokeWidth=1;sketch=1;curved=1;" parent="1" source="10" target="47" edge="1">
                    <mxGeometry relative="1" as="geometry">
                        <Array as="points">
                            <mxPoint x="434" y="282"/>
                            <mxPoint x="434" y="372"/>
                            <mxPoint x="605" y="372"/>
                        </Array>
                    </mxGeometry>
                </mxCell>
                <mxCell id="10" value="TaskSampleInertial" style="swimlane;fontStyle=1;align=center;verticalAlign=top;childLayout=stackLayout;horizontal=1;startSize=26;horizontalStack=0;resizeParent=1;resizeParentMax=0;resizeLast=0;collapsible=1;marginBottom=0;fillColor=#F2CC8F;strokeColor=#E07A5F;fontColor=#393C56;strokeWidth=1;sketch=1;" parent="1" vertex="1">
                    <mxGeometry x="449" y="257" width="149" height="100" as="geometry"/>
                </mxCell>
                <mxCell id="12" value="" style="line;strokeWidth=1;fillColor=none;align=left;verticalAlign=middle;spacingTop=-1;spacingLeft=3;spacingRight=3;rotatable=0;labelPosition=right;points=[];portConstraint=eastwest;strokeColor=#E07A5F;fontColor=#393C56;labelBackgroundColor=#F4F1DE;fontStyle=1;sketch=1;" parent="10" vertex="1">
                    <mxGeometry y="26" width="149" height="8" as="geometry"/>
                </mxCell>
                <mxCell id="13" value="Topic_Attitude_Rate&#10;Topic_Acceleration" style="text;strokeColor=none;fillColor=none;align=left;verticalAlign=top;spacingLeft=4;spacingRight=4;overflow=hidden;rotatable=0;points=[[0,0.5],[1,0.5]];portConstraint=eastwest;fontColor=#393C56;fontStyle=1;strokeWidth=1;sketch=1;" parent="10" vertex="1">
                    <mxGeometry y="34" width="149" height="66" as="geometry"/>
                </mxCell>
                <mxCell id="18" value="Fusion Layer IMU" style="swimlane;fontStyle=1;align=center;verticalAlign=top;childLayout=stackLayout;horizontal=1;startSize=26;horizontalStack=0;resizeParent=1;resizeParentMax=0;resizeLast=0;collapsible=1;marginBottom=0;fillColor=#F2CC8F;strokeColor=#E07A5F;fontColor=#393C56;strokeWidth=1;sketch=1;" parent="1" vertex="1">
                    <mxGeometry x="157.5" y="92" width="160" height="52" as="geometry"/>
                </mxCell>
                <mxCell id="21" value="Topic_Attitude" style="text;strokeColor=none;fillColor=none;align=left;verticalAlign=top;spacingLeft=4;spacingRight=4;overflow=hidden;rotatable=0;points=[[0,0.5],[1,0.5]];portConstraint=eastwest;fontColor=#393C56;fontStyle=1;strokeWidth=1;sketch=1;" parent="18" vertex="1">
                    <mxGeometry y="26" width="160" height="26" as="geometry"/>
                </mxCell>
                <mxCell id="26" value="TaskLogging" style="swimlane;fontStyle=1;align=center;verticalAlign=top;childLayout=stackLayout;horizontal=1;startSize=26;horizontalStack=0;resizeParent=1;resizeParentMax=0;resizeLast=0;collapsible=1;marginBottom=0;fillColor=#F2CC8F;strokeColor=#E07A5F;fontColor=#393C56;strokeWidth=1;sketch=1;" parent="1" vertex="1">
                    <mxGeometry x="767" y="464" width="120" height="86" as="geometry"/>
                </mxCell>
                <mxCell id="27" value="Log Frequency" style="text;strokeColor=none;fillColor=none;align=left;verticalAlign=top;spacingLeft=4;spacingRight=4;overflow=hidden;rotatable=0;points=[[0,0.5],[1,0.5]];portConstraint=eastwest;fontColor=#393C56;fontStyle=0;strokeWidth=1;sketch=1;" parent="26" vertex="1">
                    <mxGeometry y="26" width="120" height="26" as="geometry"/>
                </mxCell>
                <mxCell id="28" value="" style="line;strokeWidth=1;fillColor=none;align=left;verticalAlign=middle;spacingTop=-1;spacingLeft=3;spacingRight=3;rotatable=0;labelPosition=right;points=[];portConstraint=eastwest;strokeColor=#E07A5F;fontColor=#393C56;labelBackgroundColor=#F4F1DE;fontStyle=1;sketch=1;" parent="26" vertex="1">
                    <mxGeometry y="52" width="120" height="8" as="geometry"/>
                </mxCell>
                <mxCell id="29" value="defineMessage()" style="text;strokeColor=none;fillColor=none;align=left;verticalAlign=top;spacingLeft=4;spacingRight=4;overflow=hidden;rotatable=0;points=[[0,0.5],[1,0.5]];portConstraint=eastwest;fontColor=#393C56;fontStyle=0;strokeWidth=1;sketch=1;" parent="26" vertex="1">
                    <mxGeometry y="60" width="120" height="26" as="geometry"/>
                </mxCell>
                <mxCell id="30" value="&lt;span&gt;&lt;font style=&quot;font-size: 19px&quot;&gt;DAS Sensor Main Board - Data Control - Publish and Subscribe Service&lt;/font&gt;&lt;/span&gt;" style="whiteSpace=wrap;html=1;fillColor=#F2CC8F;strokeColor=#E07A5F;fontColor=#393C56;fontStyle=1;strokeWidth=1;sketch=1;" parent="1" vertex="1">
                    <mxGeometry x="93" y="180" width="653" height="46" as="geometry"/>
                </mxCell>
                <mxCell id="36" value="&lt;span style=&quot;font-size: 19px&quot;&gt;PERRIPHERAL&lt;/span&gt;" style="whiteSpace=wrap;html=1;fillColor=#F2CC8F;strokeColor=#E07A5F;fontColor=#393C56;rotation=0;fontStyle=1;strokeWidth=1;sketch=1;" parent="1" vertex="1">
                    <mxGeometry x="85" y="613" width="853" height="52" as="geometry"/>
                </mxCell>
                <mxCell id="97" style="edgeStyle=orthogonalEdgeStyle;orthogonalLoop=1;jettySize=auto;html=1;exitX=1;exitY=0;exitDx=0;exitDy=0;entryX=0.5;entryY=0;entryDx=0;entryDy=0;strokeColor=#E07A5F;fillColor=#F2CC8F;fontColor=#393C56;fontStyle=1;strokeWidth=1;sketch=1;curved=1;" parent="1" source="37" target="zpe9MYXDSiPziy__MkWN-6" edge="1">
                    <mxGeometry relative="1" as="geometry">
                        <Array as="points">
                            <mxPoint x="255" y="403"/>
                            <mxPoint x="360" y="403"/>
                        </Array>
                    </mxGeometry>
                </mxCell>
                <mxCell id="37" value="TaskSampleAsynch" style="swimlane;fontStyle=1;align=center;verticalAlign=top;childLayout=stackLayout;horizontal=1;startSize=26;horizontalStack=0;resizeParent=1;resizeParentMax=0;resizeLast=0;collapsible=1;marginBottom=0;fillColor=#F2CC8F;strokeColor=#E07A5F;fontColor=#393C56;strokeWidth=1;sketch=1;" parent="1" vertex="1">
                    <mxGeometry x="115" y="419" width="140" height="119" as="geometry"/>
                </mxCell>
                <mxCell id="38" value="byte FIFO[n]" style="text;strokeColor=none;fillColor=none;align=left;verticalAlign=top;spacingLeft=4;spacingRight=4;overflow=hidden;rotatable=0;points=[[0,0.5],[1,0.5]];portConstraint=eastwest;fontColor=#393C56;fontStyle=0;strokeWidth=1;sketch=1;" parent="37" vertex="1">
                    <mxGeometry y="26" width="140" height="45" as="geometry"/>
                </mxCell>
                <mxCell id="39" value="" style="line;strokeWidth=1;fillColor=none;align=left;verticalAlign=middle;spacingTop=-1;spacingLeft=3;spacingRight=3;rotatable=0;labelPosition=right;points=[];portConstraint=eastwest;strokeColor=#E07A5F;fontColor=#393C56;labelBackgroundColor=#F4F1DE;fontStyle=1;sketch=1;" parent="37" vertex="1">
                    <mxGeometry y="71" width="140" height="8" as="geometry"/>
                </mxCell>
                <mxCell id="40" value="checkValid()" style="text;strokeColor=none;fillColor=none;align=left;verticalAlign=top;spacingLeft=4;spacingRight=4;overflow=hidden;rotatable=0;points=[[0,0.5],[1,0.5]];portConstraint=eastwest;fontColor=#393C56;fontStyle=0;strokeWidth=1;sketch=1;" parent="37" vertex="1">
                    <mxGeometry y="79" width="140" height="40" as="geometry"/>
                </mxCell>
                <mxCell id="99" style="edgeStyle=orthogonalEdgeStyle;orthogonalLoop=1;jettySize=auto;html=1;exitX=0;exitY=0;exitDx=0;exitDy=0;entryX=0.5;entryY=0;entryDx=0;entryDy=0;strokeColor=#E07A5F;fillColor=#F2CC8F;fontColor=#393C56;fontStyle=1;strokeWidth=1;sketch=1;curved=1;" parent="1" source="47" target="zpe9MYXDSiPziy__MkWN-6" edge="1">
                    <mxGeometry relative="1" as="geometry">
                        <Array as="points">
                            <mxPoint x="455" y="401"/>
                            <mxPoint x="360" y="401"/>
                        </Array>
                    </mxGeometry>
                </mxCell>
                <mxCell id="47" value="TaskSampleSynch" style="swimlane;fontStyle=1;align=center;verticalAlign=top;childLayout=stackLayout;horizontal=1;startSize=26;horizontalStack=0;resizeParent=1;resizeParentMax=0;resizeLast=0;collapsible=1;marginBottom=0;fillColor=#F2CC8F;strokeColor=#E07A5F;fontColor=#393C56;strokeWidth=1;sketch=1;" parent="1" vertex="1">
                    <mxGeometry x="495" y="414" width="150" height="116" as="geometry"/>
                </mxCell>
                <mxCell id="48" value="Peripheral* port" style="text;strokeColor=none;fillColor=none;align=left;verticalAlign=top;spacingLeft=4;spacingRight=4;overflow=hidden;rotatable=0;points=[[0,0.5],[1,0.5]];portConstraint=eastwest;fontColor=#393C56;fontStyle=0;strokeWidth=1;sketch=1;" parent="47" vertex="1">
                    <mxGeometry y="26" width="150" height="26" as="geometry"/>
                </mxCell>
                <mxCell id="49" value="" style="line;strokeWidth=1;fillColor=none;align=left;verticalAlign=middle;spacingTop=-1;spacingLeft=3;spacingRight=3;rotatable=0;labelPosition=right;points=[];portConstraint=eastwest;strokeColor=#E07A5F;fontColor=#393C56;labelBackgroundColor=#F4F1DE;fontStyle=1;sketch=1;" parent="47" vertex="1">
                    <mxGeometry y="52" width="150" height="28" as="geometry"/>
                </mxCell>
                <mxCell id="50" value="parse()" style="text;strokeColor=none;fillColor=none;align=left;verticalAlign=top;spacingLeft=4;spacingRight=4;overflow=hidden;rotatable=0;points=[[0,0.5],[1,0.5]];portConstraint=eastwest;fontColor=#393C56;fontStyle=0;strokeWidth=1;sketch=1;" parent="47" vertex="1">
                    <mxGeometry y="80" width="150" height="36" as="geometry"/>
                </mxCell>
                <mxCell id="104" style="edgeStyle=orthogonalEdgeStyle;orthogonalLoop=1;jettySize=auto;html=1;exitX=1;exitY=0.25;exitDx=0;exitDy=0;strokeColor=#E07A5F;fillColor=#F2CC8F;fontColor=#393C56;fontStyle=1;strokeWidth=1;sketch=1;curved=1;" parent="1" source="51" target="47" edge="1">
                    <mxGeometry relative="1" as="geometry">
                        <Array as="points">
                            <mxPoint x="421" y="288"/>
                            <mxPoint x="432" y="288"/>
                            <mxPoint x="432" y="369"/>
                            <mxPoint x="605" y="369"/>
                        </Array>
                    </mxGeometry>
                </mxCell>
                <mxCell id="51" value="TaskSampleThermo" style="swimlane;fontStyle=1;align=center;verticalAlign=top;childLayout=stackLayout;horizontal=1;startSize=26;horizontalStack=0;resizeParent=1;resizeParentMax=0;resizeLast=0;collapsible=1;marginBottom=0;fillColor=#F2CC8F;strokeColor=#E07A5F;fontColor=#393C56;strokeWidth=1;sketch=1;" parent="1" vertex="1">
                    <mxGeometry x="294" y="256" width="127" height="101" as="geometry"/>
                </mxCell>
                <mxCell id="53" value="" style="line;strokeWidth=1;fillColor=none;align=left;verticalAlign=middle;spacingTop=-1;spacingLeft=3;spacingRight=3;rotatable=0;labelPosition=right;points=[];portConstraint=eastwest;strokeColor=#E07A5F;fontColor=#393C56;labelBackgroundColor=#F4F1DE;fontStyle=1;sketch=1;" parent="51" vertex="1">
                    <mxGeometry y="26" width="127" height="8" as="geometry"/>
                </mxCell>
                <mxCell id="54" value="Topic_ADCx_Temp" style="text;strokeColor=none;fillColor=none;align=left;verticalAlign=top;spacingLeft=4;spacingRight=4;overflow=hidden;rotatable=0;points=[[0,0.5],[1,0.5]];portConstraint=eastwest;fontColor=#393C56;fontStyle=1;strokeWidth=1;sketch=1;" parent="51" vertex="1">
                    <mxGeometry y="34" width="127" height="67" as="geometry"/>
                </mxCell>
                <mxCell id="102" value="Logging SD Card" style="html=1;fillColor=#F2CC8F;strokeColor=#E07A5F;fontColor=#393C56;fontStyle=1;strokeWidth=1;sketch=1;" parent="1" vertex="1">
                    <mxGeometry x="986" y="585" width="110" height="50" as="geometry"/>
                </mxCell>
                <mxCell id="103" value="Telemetry" style="html=1;fillColor=#F2CC8F;strokeColor=#E07A5F;fontColor=#393C56;fontStyle=1;strokeWidth=1;sketch=1;" parent="1" vertex="1">
                    <mxGeometry x="984" y="178" width="110" height="50" as="geometry"/>
                </mxCell>
                <mxCell id="zpe9MYXDSiPziy__MkWN-7" value="Datalogging /&lt;br&gt;External Communication&lt;br&gt;UART, SPI, I2C, ..." style="html=1;fillColor=#F2CC8F;strokeColor=#E07A5F;fontColor=#393C56;direction=south;fontStyle=1;strokeWidth=1;sketch=1;" parent="1" vertex="1">
                    <mxGeometry x="799" y="555" width="140" height="110" as="geometry"/>
                </mxCell>
                <mxCell id="107" value="UART ?" style="html=1;fillColor=#F2CC8F;strokeColor=#E07A5F;fontColor=#393C56;fontStyle=1;fontSize=15;strokeWidth=1;sketch=1;" parent="1" vertex="1">
                    <mxGeometry x="796" y="180" width="91" height="48" as="geometry"/>
                </mxCell>
                <mxCell id="108" value="Fusion Layer AGL" style="swimlane;fontStyle=1;align=center;verticalAlign=top;childLayout=stackLayout;horizontal=1;startSize=26;horizontalStack=0;resizeParent=1;resizeParentMax=0;resizeLast=0;collapsible=1;marginBottom=0;fillColor=#F2CC8F;strokeColor=#E07A5F;fontColor=#393C56;strokeWidth=1;sketch=1;" vertex="1" parent="1">
                    <mxGeometry x="337.5" y="92" width="160" height="52" as="geometry"/>
                </mxCell>
                <mxCell id="109" value="Topic_AGL" style="text;strokeColor=none;fillColor=none;align=left;verticalAlign=top;spacingLeft=4;spacingRight=4;overflow=hidden;rotatable=0;points=[[0,0.5],[1,0.5]];portConstraint=eastwest;fontColor=#393C56;fontStyle=1;strokeWidth=1;sketch=1;" vertex="1" parent="108">
                    <mxGeometry y="26" width="160" height="26" as="geometry"/>
                </mxCell>
                <mxCell id="113" value="Fusion Layer AGL" style="swimlane;fontStyle=1;align=center;verticalAlign=top;childLayout=stackLayout;horizontal=1;startSize=26;horizontalStack=0;resizeParent=1;resizeParentMax=0;resizeLast=0;collapsible=1;marginBottom=0;fillColor=#F2CC8F;strokeColor=#E07A5F;fontColor=#393C56;strokeWidth=1;sketch=1;" vertex="1" parent="1">
                    <mxGeometry x="517" y="92" width="160" height="52" as="geometry"/>
                </mxCell>
                <mxCell id="114" value="?" style="text;strokeColor=none;fillColor=none;align=left;verticalAlign=top;spacingLeft=4;spacingRight=4;overflow=hidden;rotatable=0;points=[[0,0.5],[1,0.5]];portConstraint=eastwest;fontColor=#393C56;fontStyle=1;strokeWidth=1;sketch=1;" vertex="1" parent="113">
                    <mxGeometry y="26" width="160" height="26" as="geometry"/>
                </mxCell>
            </root>
        </mxGraphModel>
    </diagram>
</mxfile>